<?xml version="1.0" encoding="UTF-8"?>
<!-- Generator: visioncortex VTracer -->
<svg id="svg" version="1.1" xmlns="http://www.w3.org/2000/svg" viewBox="0 0 705 705" style="display: block;">
  <path
    d="M0 0 C0.7748172 -0.0033284 1.5496344 -0.0066568 2.34793091 -0.01008606 C3.98683076 -0.01513215 5.62574082 -0.0174951 7.26464844 -0.01733398 C9.71567865 -0.01949412 12.16623833 -0.03760077 14.6171875 -0.05664062 C33.70763455 -0.12575559 51.22587923 2.60687668 69.0078125 9.73046875 C85.07632667 16.11630481 98.35547685 16.73556512 115.23925781 14.01660156 C161.81010345 6.5983927 214.47333981 16.90505304 253.01416016 44.76464844 C256.32893771 47.25397969 259.53051198 49.86638609 262.6953125 52.54296875 C263.58500732 53.29271973 263.58500732 53.29271973 264.49267578 54.05761719 C268.12955119 57.22690961 270.44071288 59.56656151 271.25390625 64.3515625 C271.38746464 68.88469139 271.36680696 70.57507553 268.3828125 74.23046875 C267.5578125 74.86984375 266.7328125 75.50921875 265.8828125 76.16796875 C266.42808594 76.42449219 266.97335937 76.68101562 267.53515625 76.9453125 C280.1822747 83.36615725 287.28504274 93.55133566 291.7578125 106.75 C293.05473803 111.89266999 293.05048495 116.88628651 292.8828125 122.16796875 C290.8828125 123.16796875 290.8828125 123.16796875 289.0078125 122.609375 C288.3065625 122.31933594 287.6053125 122.02929688 286.8828125 121.73046875 C283.97366176 120.5023935 283.97366176 120.5023935 280.8828125 120.16796875 C280.85703125 120.750625 280.83125 121.33328125 280.8046875 121.93359375 C279.79130609 136.58156138 273.66935664 148.44937279 263.8828125 159.16796875 C264.64078125 159.2659375 265.39875 159.36390625 266.1796875 159.46484375 C268.72664259 159.79905958 271.27154486 160.1428039 273.81640625 160.4921875 C277.51260598 160.99611293 281.21277744 161.44246712 284.91796875 161.875 C304.979516 164.34388607 324.89647799 168.70291309 344.05224609 175.25146484 C350.94091758 177.48193515 357.56012989 177.34357872 364.6328125 176.16796875 C365.84022095 175.97255493 365.84022095 175.97255493 367.07202148 175.77319336 C379.74044424 173.515539 391.8702197 168.90115296 403.71508789 163.97265625 C406.6707215 162.87548671 408.7841471 162.50396902 411.8828125 163.16796875 C416.51342904 167.02681587 417.35202081 172.41627517 417.8828125 178.16796875 C417.76259878 180.93288428 417.38862179 183.43659861 416.8828125 186.16796875 C418.0996875 186.55984375 419.3165625 186.95171875 420.5703125 187.35546875 C425.27841221 189.12204776 428.42742254 191.66346377 430.98828125 196.0703125 C432.91053403 200.5779533 432.57056377 205.09831726 431.04296875 209.6953125 C426.42034425 219.79660306 419.17069492 226.17251756 408.8828125 230.16796875 C399.57912215 233.45871849 388.44374592 233.00378546 378.8828125 231.16796875 C379.0478125 231.66296875 379.2128125 232.15796875 379.3828125 232.66796875 C380.63831648 238.94548863 380.47465558 243.78020413 376.8828125 249.16796875 C372.76256733 253.33437913 369.10680669 255.93790039 363.2578125 256.54296875 C356.80853548 256.3621479 350.96334055 253.92485911 346.0703125 249.79296875 C344.9875 248.49359375 344.9875 248.49359375 343.8828125 247.16796875 C343.09132813 246.31332031 342.29984375 245.45867187 341.484375 244.578125 C337.81498269 240.18375626 336.11433414 234.86362785 334.18554688 229.53710938 C332.46872358 225.27867964 331.55575602 223.5436892 327.43359375 221.2421875 C325.28235826 220.61670917 325.28235826 220.61670917 322.8828125 220.16796875 C321.9230249 219.97460938 320.9632373 219.78125 319.97436523 219.58203125 C311.88880707 218.17102087 303.82637902 217.71441448 295.6328125 217.48046875 C294.35937988 217.44211914 293.08594727 217.40376953 291.77392578 217.36425781 C275.7561453 216.95244775 260.64878389 218.4162789 244.8828125 221.16796875 C245.48754395 221.21284424 246.09227539 221.25771973 246.71533203 221.30395508 C249.48066054 221.51653011 252.24406049 221.7483282 255.0078125 221.98046875 C255.95914062 222.05072266 256.91046875 222.12097656 257.890625 222.19335938 C264.97578643 222.80839075 270.32005418 224.107036 275.3828125 229.41796875 C275.96933594 230.02253906 276.55585938 230.62710938 277.16015625 231.25 C278.85543986 233.13749264 280.38948005 235.10279147 281.9453125 237.10546875 C284.08392598 239.63085275 284.57619291 240.09913578 287.9453125 240.85546875 C291.75571354 239.96367276 293.19680226 239.06059516 295.8828125 236.16796875 C298.30759024 231.99461889 300.356181 227.74786324 301.8828125 223.16796875 C306.56691618 223.36370219 311.21541309 223.73040006 315.8828125 224.16796875 C317.3059375 224.21824219 317.3059375 224.21824219 318.7578125 224.26953125 C321.90832825 224.6928818 323.37776331 225.15871054 325.8828125 227.16796875 C328.5480145 231.42080401 330.31656543 236.07485334 332.09375 240.75 C334.53382334 247.04817177 337.43464952 251.29417732 343.1328125 255.04296875 C344.02484375 255.63851562 344.916875 256.2340625 345.8359375 256.84765625 C346.51140625 257.28335937 347.186875 257.7190625 347.8828125 258.16796875 C343.91976176 267.24024667 332.48964931 271.41967708 323.8828125 275.16796875 C318.25742085 277.09447274 312.75093035 278.18994911 306.8828125 279.16796875 C308.8628125 284.44796875 310.8428125 289.72796875 312.8828125 295.16796875 C314.44128906 294.80703125 315.99976563 294.44609375 317.60546875 294.07421875 C343.34738434 288.28393681 362.12718658 291.91337573 386.6328125 300.41796875 C388.39785343 301.02600211 390.16290911 301.63399266 391.92797852 302.24194336 C404.6256607 306.63029604 417.28675915 311.12320068 429.92321777 315.68469238 C431.83626835 316.37525423 433.74991375 317.06417074 435.66418457 317.75134277 C464.31715898 328.05541986 464.31715898 328.05541986 469.6328125 337.16796875 C474.56788311 349.01213822 470.54174181 361.85342614 465.8828125 373.16796875 C460.24562337 384.79952429 452.62004288 390.84975796 441.1953125 396.54296875 C440.07882324 397.11039795 438.96233398 397.67782715 437.81201172 398.26245117 C429.85422173 402.27204489 421.80956262 406.03449628 413.65234375 409.6171875 C406.88535046 412.5908418 400.17105894 415.67854667 393.45205688 418.75863647 C389.66689391 420.49348791 385.88031088 422.22523357 382.09375 423.95703125 C381.33284561 424.30507309 380.57194122 424.65311493 379.78797913 425.01170349 C371.63621992 428.73953209 363.47984835 432.45719459 355.3203125 436.16796875 C354.27917801 436.64148773 354.27917801 436.64148773 353.2170105 437.12457275 C344.20825175 441.22022276 335.18744081 445.28593827 326.125 449.26171875 C315.34247923 454.05978166 304.71352781 459.19131938 294.10620117 464.36206055 C283.41300744 469.571355 272.68569219 474.68939817 261.8828125 479.66796875 C251.89367383 484.27330466 241.96502138 488.98919029 232.0703125 493.79296875 C231.41306183 494.11200165 230.75581116 494.43103455 230.0786438 494.75973511 C227.48555401 496.01870798 224.89265925 497.2780813 222.30003357 498.53800964 C189.73501131 514.36029087 157.00061446 530.10563955 123.4453125 543.73046875 C121.96357544 544.33906738 121.96357544 544.33906738 120.4519043 544.95996094 C95.23928264 555.03046427 70.96945662 553.22989839 46.15625 542.81640625 C40.80492289 540.50748835 35.49618934 538.10906566 30.19726562 535.68261719 C26.89652094 534.17423327 23.58610687 532.68901491 20.2734375 531.20703125 C6.91454007 525.18805687 -6.05030695 518.67901513 -18.80615234 511.46972656 C-20.81384728 510.33883396 -22.83056041 509.2285401 -24.85546875 508.12890625 C-48.85007395 494.87689163 -74.51612821 478.48232 -84.0546875 451.29296875 C-86.25308896 442.76042307 -86.67287104 433.10854289 -82.42578125 425.1875 C-74.84956904 413.49525608 -63.53603542 409.3841993 -50.7421875 404.98046875 C-48.97488841 404.36021595 -47.20759539 403.73994584 -45.44039917 403.11940002 C-43.35053178 402.38709423 -41.25933555 401.65867622 -39.16796875 400.93066406 C-33.03148214 398.7921441 -26.90272084 396.63171656 -20.7734375 394.47265625 C-12.41010394 391.52689414 -4.04630661 388.58248804 4.31988525 385.64485168 C6.5388505 384.8647552 8.75724941 384.08304564 10.97503662 383.29960632 C15.47643412 381.70979801 19.97741236 380.12603921 24.50732422 378.61914062 C25.16523956 378.39648026 25.82315491 378.17381989 26.50100708 377.94441223 C28.13420881 377.39344878 29.77147897 376.85458167 31.40917969 376.31713867 C34.91441359 374.6887202 36.54460576 372.43711612 38.55078125 369.21875 C45.3515496 358.74835885 58.29394044 354.70105554 69.8828125 352.16796875 C73.87264294 351.42567471 77.86856136 350.76345103 81.8828125 350.16796875 C81.53089844 349.69230469 81.17898437 349.21664063 80.81640625 348.7265625 C77.41220873 343.90024592 74.64605055 338.93470453 72.1328125 333.60546875 C71.83947021 332.9930835 71.54612793 332.38069824 71.24389648 331.74975586 C66.16171307 320.71512198 64.96559133 307.92618366 67.5703125 296.02734375 C68.49559152 293.57535434 69.55062597 291.4227565 70.8828125 289.16796875 C71.31851563 288.39324219 71.75421875 287.61851562 72.203125 286.8203125 C79.56589005 274.77032271 91.04388909 269.12461526 103.8828125 264.16796875 C102.73464079 258.45617782 101.11005484 253.3538602 96.8828125 249.16796875 C89.68562749 245.32936618 80.96843704 244.65188478 73.00915527 243.48840332 C69.97265882 243.03081085 66.94629513 242.51713212 63.91827393 242.00688171 C47.96658097 239.32483158 31.95199479 237.02392807 15.8828125 235.16796875 C14.75697754 235.03108643 13.63114258 234.8942041 12.47119141 234.75317383 C5.22263173 233.98203851 -0.43908368 233.94438486 -6.44140625 238.55859375 C-7.56864019 239.50444897 -8.68955743 240.45787324 -9.8046875 241.41796875 C-19.89649616 249.71874894 -30.82798712 255.77523763 -44.203125 255.48046875 C-50.55148721 254.79967924 -56.94094976 253.06178006 -61.2421875 248.10546875 C-64.12424908 243.59023894 -64.84062973 239.45311612 -64.1171875 234.16796875 C-61.78037713 229.75399361 -58.6478275 226.65176775 -55.1171875 223.16796875 C-56.01473755 223.1539502 -56.01473755 223.1539502 -56.93041992 223.13964844 C-86.90270837 222.55246445 -86.90270837 222.55246445 -98.0859375 211.55078125 C-102.91142481 205.89011344 -105.42645774 199.65692572 -105.34375 192.171875 C-105.01677928 189.27987539 -103.89856215 187.42894427 -102.1171875 185.16796875 C-99.82088756 184.01981878 -98.04020664 183.86027066 -95.4921875 183.60546875 C-94.67492187 183.52167969 -93.85765625 183.43789063 -93.015625 183.3515625 C-92.38914062 183.29097656 -91.76265625 183.23039063 -91.1171875 183.16796875 C-91.22417969 182.37132812 -91.33117187 181.5746875 -91.44140625 180.75390625 C-92.66497559 169.93913205 -92.66497559 169.93913205 -89.1171875 165.16796875 C-85.4702814 161.99138247 -82.97712276 161.42134077 -78.21875 161.5546875 C-71.3317748 162.91646975 -65.21780212 166.81778484 -59.1171875 170.16796875 C-41.46439229 179.69871729 -24.04622799 183.56088285 -3.9921875 183.48046875 C-2.97919586 183.47972855 -2.97919586 183.47972855 -1.94573975 183.47897339 C15.35614672 184.39883412 15.35614672 184.39883412 30.8828125 179.16796875 C29.96242187 178.64589844 29.04203125 178.12382812 28.09375 177.5859375 C5.79804036 164.71320821 -13.36672607 148.59369062 -21.1171875 123.16796875 C-24.32407819 108.36693482 -20.39924229 96.04536631 -13.1171875 83.16796875 C-12.52808594 82.45382813 -11.93898438 81.7396875 -11.33203125 81.00390625 C-9.90993862 79.26663387 -9.90993862 79.26663387 -10.27734375 77.25390625 C-11.29405752 74.72867298 -12.41365987 72.26463097 -13.5546875 69.79296875 C-18.22134524 58.58489769 -18.41798912 47.48808465 -17.8684082 35.53930664 C-17.74905551 31.2242791 -17.78253208 28.17711898 -20.09765625 24.453125 C-22.35591523 20.77963216 -22.63088784 18.80002768 -22.5546875 14.54296875 C-22.55339844 13.45757812 -22.55210938 12.3721875 -22.55078125 11.25390625 C-22.07088105 7.83840032 -21.16132856 5.9231154 -19.1171875 3.16796875 C-13.23497702 -0.01160448 -6.54131683 0.00999676 0 0 Z M5.0078125 24.41796875 C-1.33553777 32.62701027 -1.71807628 43.14849766 -1.1171875 53.16796875 C-0.6075579 56.23904103 0.09164639 59.15164794 0.8828125 62.16796875 C2.66990521 59.48732969 3.36641796 57.90447886 4.1796875 54.88671875 C4.41292725 54.04979492 4.64616699 53.21287109 4.88647461 52.35058594 C5.13276611 51.46532227 5.37905762 50.58005859 5.6328125 49.66796875 C8.78811392 38.80605917 12.63525802 29.9798166 20.5625 21.7265625 C22.09826942 20.2540701 22.09826942 20.2540701 21.8828125 18.16796875 C15.54209217 17.34981129 9.84703238 20.63075319 5.0078125 24.41796875 Z M121.0703125 37.66796875 C115.61444232 45.04726434 115.47613097 54.48759062 116.421875 63.23046875 C116.96541967 66.69441446 117.7288859 69.86004584 118.8828125 73.16796875 C119.2128125 73.16796875 119.5428125 73.16796875 119.8828125 73.16796875 C120.16253906 72.10320312 120.44226563 71.0384375 120.73046875 69.94140625 C124.27232568 56.93400824 128.53233968 45.20262251 137.8828125 35.16796875 C137.8828125 34.50796875 137.8828125 33.84796875 137.8828125 33.16796875 C138.5015625 32.87921875 139.1203125 32.59046875 139.7578125 32.29296875 C142.01607015 31.23076833 142.01607015 31.23076833 143.8828125 29.16796875 C135.35754703 29.16796875 127.43007665 32.01484506 121.0703125 37.66796875 Z M85.8828125 43.16796875 C83.49499916 47.76672036 81.40001653 52.34254228 79.5078125 57.16796875 C77.60610735 61.83097333 75.42856553 65.58257724 72.21484375 69.44921875 C70.80843038 71.26394568 69.84488886 73.08878951 68.8828125 75.16796875 C69.75164062 75.2659375 70.62046875 75.36390625 71.515625 75.46484375 C79.47816649 76.49801468 84.34634689 77.72708329 90.1953125 83.41796875 C92.77248001 87.61779728 93.43493495 91.51973539 92.44140625 96.28515625 C89.64853446 104.74356795 83.46111249 108.28801124 75.8828125 112.16796875 C76.19125072 119.41626699 79.36789444 124.62675455 84.44921875 129.74609375 C93.51356739 136.99757266 105.82444578 137.09985359 116.8828125 136.16796875 C132.46620348 134.0339375 146.08379838 127.30661149 159.8828125 120.16796875 C157.1972531 117.48240935 154.50659922 117.10746901 150.8828125 116.16796875 C153.21690157 113.39249745 154.79289861 112.6993079 158.3828125 112.35546875 C166.96887596 111.77972689 174.53044759 112.82840361 181.2890625 118.4375 C183.76382353 121.12455671 184.77469126 123.70508986 185.8828125 127.16796875 C180.9328125 126.83796875 175.9828125 126.50796875 170.8828125 126.16796875 C170.4703125 127.33070313 170.0578125 128.4934375 169.6328125 129.69140625 C150.89506929 181.9259609 150.89506929 181.9259609 127.0859375 193.53125 C117.71459331 197.34355718 109.53854542 198.80908033 99.7578125 195.29296875 C93.20311882 192.33034792 89.92276165 187.94313835 85.8828125 182.16796875 C82.81362185 178.28990273 79.58052138 174.72984523 75.8359375 171.49609375 C68.73771699 165.33836415 63.88756451 159.73428014 59.6640625 151.296875 C56.61218558 145.93601225 52.71010475 142.85476283 47.4453125 139.79296875 C39.2682245 134.68914872 34.1738058 128.30080558 30.8828125 119.16796875 C29.9592713 114.30823125 29.30346691 109.90600553 30.8828125 105.16796875 C31.5428125 104.83796875 32.2028125 104.50796875 32.8828125 104.16796875 C33.0890625 104.99296875 33.2953125 105.81796875 33.5078125 106.66796875 C38.11994804 118.40795013 48.30048019 125.63887887 59.3828125 130.7890625 C63.90676117 132.5713771 68.03899424 133.24609485 72.8828125 133.16796875 C72.47289062 132.32234375 72.06296875 131.47671875 71.640625 130.60546875 C66.71186784 120.22913788 66.71186784 120.22913788 66.1328125 115.60546875 C65.28410522 112.0938278 65.28410522 112.0938278 62.828125 111.04296875 C61.08031556 110.40546987 59.32168944 109.79703514 57.5546875 109.21484375 C50.45927786 106.43477097 46.14071259 100.81951477 42.8828125 94.16796875 C41.99142578 94.27625 41.99142578 94.27625 41.08203125 94.38671875 C26.99326653 95.96430982 16.05345507 94.38652524 2.8828125 89.16796875 C-4.18201177 97.90604088 -4.76527796 106.12771026 -3.7109375 117.1015625 C-1.7628918 132.53691715 8.26644673 145.38983108 19.8828125 155.16796875 C31.00249978 163.43507716 43.99635897 170.08782512 57.23046875 174.2109375 C66.94618565 177.34710435 71.5535834 184.47414063 77.48291016 192.33007812 C84.51284418 201.5594718 95.11503371 208.763663 106.7265625 210.953125 C122.64622852 212.53932361 137.05415439 210.02124061 149.8828125 200.16796875 C150.53636719 199.67167969 151.18992187 199.17539062 151.86328125 198.6640625 C157.35880705 194.21183741 162.27775068 188.87651057 165.8828125 182.79296875 C170.08476911 179.11625672 174.2877063 179.17197923 179.6640625 178.640625 C206.7003417 175.88809101 234.8892862 163.59824318 252.80859375 142.9765625 C259.59563677 133.78657393 265.54064212 121.8556676 263.8828125 110.16796875 C261.28518487 99.95456922 256.54021288 93.17031412 247.6171875 87.5859375 C236.40880592 81.77359105 223.40961073 78.47628191 210.8828125 81.16796875 C211.09486328 80.57258301 211.30691406 79.97719727 211.52539062 79.36376953 C212.48110498 76.67464139 213.43201398 73.9838387 214.3828125 71.29296875 C214.88361328 69.88724609 214.88361328 69.88724609 215.39453125 68.453125 C215.71035156 67.55722656 216.02617187 66.66132813 216.3515625 65.73828125 C216.64482422 64.91086426 216.93808594 64.08344727 217.24023438 63.23095703 C217.98194151 61.2098409 217.98194151 61.2098409 217.8828125 59.16796875 C218.42695801 59.3695459 218.97110352 59.57112305 219.53173828 59.77880859 C222.02339495 60.70119309 224.51559824 61.62209193 227.0078125 62.54296875 C227.86375 62.86007813 228.7196875 63.1771875 229.6015625 63.50390625 C234.00716956 65.13059193 238.41501274 66.71776489 242.8828125 68.16796875 C242.8828125 67.50796875 242.8828125 66.84796875 242.8828125 66.16796875 C240.80820415 64.62639846 238.75388426 63.22759707 236.5703125 61.85546875 C235.93818848 61.45537598 235.30606445 61.0552832 234.65478516 60.64306641 C225.81918444 54.54779864 225.81918444 54.54779864 215.84570312 52.37011719 C213.74169232 52.98830616 213.74169232 52.98830616 212.88134766 54.94287109 C212.64722168 55.7055127 212.4130957 56.4681543 212.171875 57.25390625 C211.76437012 58.51847656 211.76437012 58.51847656 211.34863281 59.80859375 C210.93242676 61.16210938 210.93242676 61.16210938 210.5078125 62.54296875 C204.98630738 79.20723501 197.00644894 93.41264181 180.93359375 101.765625 C179.92683594 102.22839844 178.92007813 102.69117188 177.8828125 103.16796875 C176.96886719 103.59980469 176.05492187 104.03164062 175.11328125 104.4765625 C167.5919408 107.38642514 160.25016388 107.54516458 152.2578125 107.60546875 C150.68447144 107.62081665 150.68447144 107.62081665 149.0793457 107.63647461 C139.00938964 107.52345336 130.31631264 105.25544179 121.3828125 100.66796875 C120.2175 100.08015625 119.0521875 99.49234375 117.8515625 98.88671875 C115.36438637 97.44677468 113.82288341 96.20753047 111.8828125 94.16796875 C111.2228125 94.16796875 110.5628125 94.16796875 109.8828125 94.16796875 C109.62113281 93.59046875 109.35945313 93.01296875 109.08984375 92.41796875 C107.81066958 90.03348875 106.32573409 88.22309647 104.5703125 86.16796875 C95.91785155 75.17700485 93.27807239 61.12214053 91.41015625 47.56640625 C91.07099308 44.99697172 91.07099308 44.99697172 88.8828125 43.16796875 C87.8928125 43.16796875 86.9028125 43.16796875 85.8828125 43.16796875 Z M69.8828125 145.16796875 C72.06381601 152.80148102 76.0905001 158.9502662 82.8828125 163.16796875 C87.05231133 164.84120972 90.82801611 165.72867858 95.23046875 164.52734375 C98.22052395 163.15984119 100.26716619 162.10931181 102.09375 159.31640625 C102.99244919 156.86945302 103.08422195 155.01589018 103.0078125 152.41796875 C102.98976562 151.61875 102.97171875 150.81953125 102.953125 149.99609375 C102.92992187 149.3928125 102.90671875 148.78953125 102.8828125 148.16796875 C91.60535763 144.69966058 81.59758449 143.69512508 69.8828125 145.16796875 Z M108.81640625 174.04296875 C106.40322744 176.69502789 106.16772938 178.64899534 105.8828125 182.16796875 C110.59454742 184.75182339 114.81876557 184.48055617 119.8828125 183.16796875 C122.79558942 181.79631562 125.30550848 180.0872377 127.8828125 178.16796875 C128.8934375 177.46671875 129.9040625 176.76546875 130.9453125 176.04296875 C136.30002807 171.45111677 139.86486363 164.45536223 142.8828125 158.16796875 C129.83271368 158.16796875 118.8153598 166.55545283 108.81640625 174.04296875 Z M-76.1171875 180.16796875 C-65.87593259 196.79494731 -53.38179691 205.96020362 -36.1171875 214.16796875 C-34.78175776 214.83042602 -33.44708454 215.49447333 -32.1171875 216.16796875 C-31.96896015 222.98642666 -35.31854724 226.13812457 -39.890625 230.93359375 C-41.20874881 232.25634256 -42.54188346 233.5648462 -43.90625 234.83984375 C-45.34177212 236.11473744 -45.34177212 236.11473744 -45.1171875 238.16796875 C-35.78900182 238.76023451 -29.06293793 236.12167673 -21.62109375 230.52734375 C-17.86484701 227.13208696 -15.36744745 222.96414241 -14.9140625 217.8984375 C-14.81664243 212.61339896 -14.79189165 208.53241956 -18.1171875 204.16796875 C-23.42846055 200.76619627 -29.27142865 199.14644051 -35.3046875 197.54296875 C-47.49152622 194.10341355 -60.09145681 189.15894496 -70.53125 181.86328125 C-73.01998616 179.89383372 -73.01998616 179.89383372 -76.1171875 180.16796875 Z M391.453125 184.55859375 C390.15157471 185.00174927 390.15157471 185.00174927 388.82373047 185.45385742 C387.42985107 185.93109253 387.42985107 185.93109253 386.0078125 186.41796875 C377.0745072 189.40397133 368.27032268 191.44527572 358.94189453 192.74902344 C353.82199174 193.52478462 353.82199174 193.52478462 349.328125 195.96875 C345.41944694 201.91627905 346.30467661 210.41008543 347.34375 217.1640625 C348.96211794 224.48479748 351.45475369 233.69380016 357.60546875 238.51953125 C359.3716425 239.47095658 359.3716425 239.47095658 361.8828125 240.16796875 C364.89608805 235.80156191 363.64265949 230.97010317 363.07226562 226.01171875 C362.78138855 222.86201952 362.68765804 220.60126623 364 217.6875 C366.60621307 215.58414547 368.25365832 215.73231514 371.5703125 215.85546875 C373.1790625 215.90767578 373.1790625 215.90767578 374.8203125 215.9609375 C377.25806561 216.12573459 379.65063687 216.34111741 382.0703125 216.66796875 C392.14819948 217.98965885 403.41532583 217.44688934 411.8828125 211.16796875 C412.77873333 207.56877452 412.77873333 207.56877452 412.8828125 204.16796875 C408.94200907 204.00376861 406.09950283 204.10819211 402.2578125 205.16796875 C395.0898419 207.09244335 386.92703889 207.56788363 380.1328125 204.29296875 C376.8828125 202.16796875 376.8828125 202.16796875 375.8828125 200.16796875 C376.41648437 200.00941406 376.95015625 199.85085938 377.5 199.6875 C386.24826814 196.94799043 394.70262512 194.11092274 399.8828125 186.16796875 C399.8828125 185.17796875 399.8828125 184.18796875 399.8828125 183.16796875 C396.35892535 183.16796875 394.64913955 183.43345582 391.453125 184.55859375 Z M-86.1171875 198.16796875 C-85.10742104 201.80312801 -84.17075032 203.12466264 -81.1796875 205.54296875 C-79.66375 206.34734375 -79.66375 206.34734375 -78.1171875 207.16796875 C-77.1271875 206.83796875 -76.1371875 206.50796875 -75.1171875 206.16796875 C-76.57006411 204.82869154 -78.02966009 203.49670028 -79.4921875 202.16796875 C-80.30429688 201.42546875 -81.11640625 200.68296875 -81.953125 199.91796875 C-83.91252742 197.95837062 -83.91252742 197.95837062 -86.1171875 198.16796875 Z M169.3203125 202.10546875 C152.28975162 218.15204166 135.67984158 224.52077275 112.8828125 227.16796875 C109.3925427 237.63877816 121.41177027 256.19794716 126.05078125 265.60546875 C137.48419177 288.22556214 152.43829922 307.29381153 176.8828125 316.26953125 C189.20112099 319.85121334 203.98454629 319.92087627 215.5078125 313.91796875 C223.92010591 308.89111049 230.49272985 302.80849117 233.1953125 293.10546875 C235.78511606 278.27295744 229.09935713 266.88999858 220.8828125 255.16796875 C219.93813116 253.78952206 218.99414284 252.41060022 218.05078125 251.03125 C212.73299227 243.32212824 207.16308212 235.89261634 201.25170898 228.63012695 C197.89644037 224.49102526 194.71214422 220.26599707 191.6328125 215.91796875 C191.22635498 215.34651123 190.81989746 214.77505371 190.40112305 214.1862793 C188.44972525 211.42942947 186.53935079 208.65488887 184.66015625 205.84765625 C183.62568359 204.33558594 183.62568359 204.33558594 182.5703125 202.79296875 C181.97605469 201.89835938 181.38179688 201.00375 180.76953125 200.08203125 C179.02752046 197.96661532 179.02752046 197.96661532 176.4375 197.6328125 C173.07887553 198.33637756 171.75139021 199.69907203 169.3203125 202.10546875 Z M321.8828125 310.16796875 C321.8828125 310.82796875 321.8828125 311.48796875 321.8828125 312.16796875 C323.45567934 313.58235281 325.09421246 314.92401276 326.7578125 316.23046875 C340.24045474 327.05456182 355.22218007 339.18607147 360.8828125 356.16796875 C361.38723489 361.43546155 361.5544784 365.79976043 359.1953125 370.60546875 C352.63325227 377.87694089 345.37623173 380.75467891 335.69140625 381.37109375 C322.90276501 381.54891958 312.41741122 379.65409385 301.8828125 372.16796875 C300.8721875 371.46671875 299.8615625 370.76546875 298.8203125 370.04296875 C294.85790042 366.61265201 291.9612842 362.05335829 288.93359375 357.8125 C286.35359773 354.4855337 284.81291102 353.29813804 280.6171875 352.7109375 C279.28919867 352.5909314 277.96106307 352.47254237 276.6328125 352.35546875 C258.72143531 350.36013363 241.95049378 342.48737358 228.7421875 330.15234375 C226.84468658 328.87993114 226.84468658 328.87993114 224.40234375 329.8125 C222.02321798 331.09243278 219.97093562 332.47696223 217.8203125 334.10546875 C199.17278572 346.62901301 171.91798509 338.88068308 151.52954102 335.08935547 C146.55130931 334.19702519 141.9242292 333.89298238 136.8828125 334.16796875 C137.31252382 336.02395594 137.75200755 337.87768139 138.1953125 339.73046875 C138.43894531 340.76300781 138.68257812 341.79554688 138.93359375 342.859375 C139.9735143 346.48411864 141.33625013 349.73260753 142.8828125 353.16796875 C144.11773437 352.73484375 145.35265625 352.30171875 146.625 351.85546875 C157.4510216 348.22559276 166.82279872 346.37966884 178.20703125 347.02392578 C181.40011992 347.1958165 184.59319177 347.30582368 187.7890625 347.4140625 C194.15513554 347.633775 200.51904024 347.88993269 206.8828125 348.16796875 C205.27611179 351.38137017 201.91027198 351.82046283 198.68359375 352.9609375 C197.57491188 353.36168991 197.57491188 353.36168991 196.4438324 353.77053833 C194.03036856 354.6399544 191.61308814 355.49812368 189.1953125 356.35546875 C187.54909392 356.94473878 185.90293512 357.53417583 184.25683594 358.1237793 C172.21735189 362.41817583 160.11774612 366.46245471 147.8828125 370.16796875 C147.9446875 371.21984375 148.0065625 372.27171875 148.0703125 373.35546875 C147.86819615 377.46516788 147.5081649 379.05405383 144.8828125 382.16796875 C119.1941306 397.36507229 75.08719868 411.68763902 45.1015625 404.85546875 C40.28981958 403.36450616 37.29805176 400.81909059 34.3828125 396.85546875 C33.5578125 395.96859375 32.7328125 395.08171875 31.8828125 394.16796875 C27.5670724 394.48672118 23.66829146 395.80125481 19.59765625 397.21484375 C17.74563599 397.85437988 17.74563599 397.85437988 15.85620117 398.50683594 C14.51084382 398.97703867 13.16554938 399.44742146 11.8203125 399.91796875 C10.41197708 400.40689781 9.00352728 400.8954975 7.5949707 401.38378906 C3.81266526 402.69682436 0.03281042 404.0167759 -3.74633789 405.33886719 C-6.14102976 406.17630654 -8.53626743 407.01216789 -10.93164062 407.84765625 C-19.62106626 410.8796707 -28.3048109 413.92709768 -36.97962952 417.00067139 C-41.14799115 418.47656624 -45.32263447 419.9320536 -49.50390625 421.37109375 C-51.20855807 421.96941218 -52.91301129 422.56829701 -54.6171875 423.16796875 C-55.33946533 423.40999023 -56.06174316 423.65201172 -56.8059082 423.90136719 C-61.26994965 425.49887253 -64.08512627 427.52371992 -67.1171875 431.16796875 C-67.67742212 433.71687917 -67.67742212 433.71687917 -66.1171875 436.16796875 C-60.94993883 440.81865525 -55.03431491 443.94660244 -48.8046875 446.91796875 C-47.02513282 447.78589943 -45.24650819 448.65573927 -43.46875 449.52734375 C-42.57446289 449.96498047 -41.68017578 450.40261719 -40.75878906 450.85351562 C-36.68948688 452.87838835 -32.68694591 455.02367849 -28.6796875 457.16796875 C-21.20450481 461.14954445 -13.6140924 464.82484156 -5.94677734 468.42016602 C-0.14095008 471.15857231 5.54272088 474.06490502 11.1953125 477.10546875 C37.65334317 491.24750808 65.30823902 504.65923588 95.75 495.5390625 C114.19756646 489.56027289 131.97550588 481.60958709 149.81341553 474.0447998 C152.56875902 472.87732407 155.32564081 471.71350645 158.08253479 470.54969788 C171.98442232 464.68003025 185.86067074 458.75700293 199.6953125 452.73046875 C211.25828867 447.69416558 222.87961399 442.80906288 234.52874756 437.97573853 C246.48428298 433.01444497 258.41146747 427.99029256 270.3203125 422.91796875 C273.67832252 421.4881335 277.03639444 420.0584437 280.39453125 418.62890625 C281.24251282 418.2679184 282.09049438 417.90693054 282.96417236 417.53500366 C319.14100195 402.1406352 355.39051934 386.9195183 391.7578125 371.98046875 C392.5729129 371.64563477 393.38801331 371.31080078 394.22781372 370.96582031 C402.68929965 367.49275387 411.15917531 364.04334392 419.66015625 360.66796875 C420.34938171 360.39401779 421.03860718 360.12006683 421.74871826 359.83781433 C424.93710062 358.57155265 428.12749488 357.31116289 431.32177734 356.05981445 C436.47212855 354.02420651 441.60283343 351.94141558 446.64453125 349.6484375 C447.44205811 349.29031982 448.23958496 348.93220215 449.0612793 348.56323242 C451.14252498 347.25541369 451.14252498 347.25541369 451.64770508 344.51293945 C451.76408325 343.35217896 451.76408325 343.35217896 451.8828125 342.16796875 C442.14446005 336.60483648 431.42461744 333.28740322 420.8828125 329.60546875 C418.87293705 328.89873689 416.86325466 328.19145578 414.85375977 327.48364258 C410.80210217 326.05720513 406.74928829 324.63411872 402.69580078 323.21289062 C397.3849802 321.34821468 392.08361908 319.45804842 386.78515625 317.55859375 C384.51000108 316.74550896 382.23465816 315.93295229 379.95922852 315.12063599 C378.55561629 314.61851338 377.15259932 314.11472307 375.75024414 313.60910034 C356.55913034 306.6962005 341.57675232 303.98947783 321.8828125 310.16796875 Z M325.8828125 345.16796875 C326.89594532 347.70080079 327.39264457 348.92288479 329.8828125 350.16796875 C331.8828125 351.16796875 331.8828125 351.16796875 332.765625 353 C334.08136783 355.55327717 335.59616618 356.97524431 337.7578125 358.85546875 C338.77488281 359.75845703 338.77488281 359.75845703 339.8125 360.6796875 C341.89347084 362.17563069 343.37912076 362.74694435 345.8828125 363.16796875 C343.2215963 354.94239141 337.23598861 350.20629624 329.8828125 346.16796875 C327.71329356 345.49256618 327.71329356 345.49256618 325.8828125 345.16796875 Z M312.8828125 359.16796875 C313.46226182 361.16660631 313.46226182 361.16660631 314.8828125 363.16796875 C317.92480722 364.46028517 317.92480722 364.46028517 320.8828125 365.16796875 C317.40545224 361.38762252 317.40545224 361.38762252 312.8828125 359.16796875 Z M68.5078125 367.91796875 C67.84217285 368.07483154 67.1765332 368.23169434 66.49072266 368.39331055 C59.04927949 370.34199291 54.30657763 374.10109085 49.8828125 380.16796875 C49.23461273 382.27897478 49.23461273 382.27897478 48.8828125 384.16796875 C49.56085938 383.78125 50.23890625 383.39453125 50.9375 382.99609375 C68.88866139 372.95139956 68.88866139 372.95139956 78.1328125 373.10546875 C79.9890625 373.13640625 79.9890625 373.13640625 81.8828125 373.16796875 C78.11228593 376.33034588 74.15576834 378.94272788 69.96875 381.5078125 C67.53684045 383.44332104 66.33151301 385.44127447 64.8828125 388.16796875 C73.96187731 388.29431756 82.19504097 386.22233984 90.8828125 383.79296875 C91.98101318 383.48866943 93.07921387 383.18437012 94.21069336 382.87084961 C101.43880338 380.87948924 101.43880338 380.87948924 107.8828125 377.16796875 C107.8828125 375.84796875 107.8828125 374.52796875 107.8828125 373.16796875 C94.62510039 366.39107373 83.19474451 364.35899042 68.5078125 367.91796875 Z "
    transform="translate(145.1171875,101.83203125)" style="fill: #382216;" />
  <path
    d="M0 0 C13.42558723 13.90870846 22.50224968 30.70289188 27.1340332 49.49853516 C27.43180664 50.70509766 27.72958008 51.91166016 28.03637695 53.15478516 C32.35502595 73.05639346 32.06230676 95.67290861 21.1340332 113.49853516 C18.1340332 112.49853516 18.1340332 112.49853516 17.1418457 110.64306641 C16.70485352 109.48871094 16.70485352 109.48871094 16.2590332 108.31103516 C13.53090002 101.84966709 10.1383305 97.15388129 3.5715332 94.19384766 C-2.90278376 92.34700724 -10.20345151 92.32653469 -16.3659668 95.18603516 C-23.65114076 99.53265155 -28.55917378 106.45028877 -32.3659668 113.87353516 C-32.9331543 114.95376953 -33.5003418 116.03400391 -34.0847168 117.14697266 C-38.92246813 127.97198605 -40.57169085 139.82506275 -41.8659668 151.49853516 C-42.02939007 152.88175454 -42.19421741 154.26480867 -42.36035156 155.64770508 C-42.95686153 160.63093021 -43.533227 165.61643481 -44.10882568 170.60211182 C-49.1875059 214.48144593 -49.1875059 214.48144593 -57.8659668 230.49853516 C-58.5259668 230.82853516 -59.1859668 231.15853516 -59.8659668 231.49853516 C-60.25268555 230.26876953 -60.6394043 229.03900391 -61.0378418 227.77197266 C-61.56339526 226.13900295 -62.08946431 224.50619912 -62.6159668 222.87353516 C-62.99495117 221.66117187 -62.99495117 221.66117187 -63.3815918 220.42431641 C-64.62392104 216.60415399 -65.74316204 213.67403273 -68.0690918 210.35009766 C-71.84146763 204.36350122 -69.39148522 197.1457481 -68.1784668 190.56103516 C-66.31720628 180.05922742 -64.98778629 169.54050613 -63.74163818 158.95193481 C-60.74831906 133.70998814 -57.50806038 107.89614544 -40.8659668 87.49853516 C-40.26268555 86.72251953 -39.6594043 85.94650391 -39.0378418 85.14697266 C-32.36611251 77.03783828 -23.57617623 70.35964034 -12.82861328 69.29711914 C-10.6703117 69.19590601 -8.52648883 69.17637271 -6.3659668 69.18603516 C-5.28508789 69.16186523 -5.28508789 69.16186523 -4.18237305 69.13720703 C0.9700019 69.13254846 4.52360849 70.19938915 9.1340332 72.49853516 C6.02822297 61.27132051 1.77526079 51.80094862 -8.57299805 45.68212891 C-18.5696598 40.52201219 -30.16337859 39.77365861 -41.1159668 42.49853516 C-59.03765463 48.90561411 -69.72139381 64.34320607 -77.6159668 80.74853516 C-89.29803175 106.37285464 -90.27464471 135.6539424 -92.38378906 163.30981445 C-93.12973746 172.94847178 -94.01134149 182.54833004 -95.29956055 192.13134766 C-95.40994156 193.0018576 -95.52032257 193.87236755 -95.63404846 194.76925659 C-96.28076656 199.30463767 -97.0142432 202.76266272 -99.8659668 206.49853516 C-107.43555259 211.41405456 -118.15002066 212.61758629 -126.8659668 214.49853516 C-127.71545898 214.70091797 -128.56495117 214.90330078 -129.44018555 215.11181641 C-132.59521919 215.61479278 -135.67580365 215.52156295 -138.8659668 215.49853516 C-138.77541519 214.88093323 -138.68486359 214.2633313 -138.59156799 213.62701416 C-136.53382379 199.04705993 -135.58647567 184.75195305 -135.64331055 170.04541016 C-135.64638844 169.24429306 -135.64946632 168.44317596 -135.65263748 167.61778259 C-135.67707298 162.66316272 -135.72296391 157.70889784 -135.77655029 152.7545166 C-135.85651165 145.30995115 -135.91881946 137.86531591 -135.95581055 130.42041016 C-135.9597646 129.62919455 -135.96371864 128.83797894 -135.96779251 128.02278709 C-136.12099717 86.24596404 -128.57376137 50.03832533 -100.49487305 18.04541016 C-98.8659668 16.49853516 -98.8659668 16.49853516 -96.8659668 16.49853516 C-96.8659668 15.83853516 -96.8659668 15.17853516 -96.8659668 14.49853516 C-82.64397276 1.51557848 -63.99291412 -6.15922293 -44.8659668 -7.50146484 C-57.97393674 -14.66258857 -75.349256 -14.01569113 -89.4597168 -10.53662109 C-100.20983086 -7.26967129 -109.17021796 -2.59288172 -117.8659668 4.49853516 C-118.64584961 5.11470703 -119.42573242 5.73087891 -120.22924805 6.36572266 C-141.45812374 24.03812004 -151.99848972 52.72868457 -154.8659668 79.49853516 C-156.55507181 101.72979561 -154.67627599 123.75352322 -152.00997925 145.81967163 C-149.49642104 166.74919682 -149.32884036 187.44813689 -149.8659668 208.49853516 C-151.0293457 208.22356201 -152.19272461 207.94858887 -153.39135742 207.6652832 C-154.9349708 207.30107959 -156.47859095 206.93690467 -158.0222168 206.57275391 C-158.78695312 206.39192261 -159.55168945 206.21109131 -160.33959961 206.02478027 C-164.34093409 205.08145491 -168.34504021 204.1679606 -172.3659668 203.31103516 C-175.8659668 202.49853516 -175.8659668 202.49853516 -176.8659668 201.49853516 C-177.16533057 199.65116304 -177.40805309 197.79457329 -177.62768555 195.93603516 C-180.49240283 172.84113048 -185.59888368 151.11139305 -192.67138672 128.91967773 C-204.37758983 91.8203658 -204.55358681 53.83721292 -186.5534668 18.68603516 C-171.85632238 -7.15726576 -149.93898275 -27.38657907 -120.8659668 -35.50146484 C-75.89173024 -46.31345303 -32.29118644 -32.47915463 0 0 Z "
    transform="translate(634.865966796875,52.50146484375)" style="fill: #382216;" />
  <path
    d="M0 0 C11.80226021 10.67823543 13.71065856 25.37153853 16.625 40.375 C23.225 40.705 29.825 41.035 36.625 41.375 C34.975 39.395 33.325 37.415 31.625 35.375 C29.20188297 31.79801772 29.38875775 28.62736047 29.625 24.375 C29.955 23.715 30.285 23.055 30.625 22.375 C49.98504223 21.06245476 72.78295115 33.53724714 87.39453125 45.67578125 C89.55540092 47.67800062 89.55540092 47.67800062 92.625 47.375 C93.06199219 46.35792969 93.06199219 46.35792969 93.5078125 45.3203125 C101.2378823 27.76965087 111.50678079 13.78679044 129.6171875 6.1015625 C136.87773531 3.47420473 145.19833902 3.0269095 152.4375 5.9375 C163.63224893 11.77736 168.32647197 22.59977473 172 34.1875 C176.44669348 52.36662921 174.93759707 72.56028934 165.32421875 88.80859375 C160.61098813 95.92719724 155.905962 101.82439875 148.625 106.375 C149.058125 107.37660156 149.49125 108.37820312 149.9375 109.41015625 C150.50065043 110.75233144 151.06311401 112.09479497 151.625 113.4375 C151.91117188 114.09427734 152.19734375 114.75105469 152.4921875 115.42773438 C154.37419569 119.97592083 154.93203201 123.45609142 154.625 128.375 C151.68507125 129.27678665 150.21060961 129.65859067 147.390625 128.29296875 C146.56046875 127.72191406 145.7303125 127.15085938 144.875 126.5625 C137.56972503 121.96355969 129.66537446 119.16984112 121.52246094 116.36791992 C113.82386988 113.51744715 110.05813825 110.2053111 105.625 103.375 C99.51202691 95.43692443 92.4106038 90.05598734 82.625 87.375 C67.74020162 85.92364778 56.60181968 89.74714886 44.625 98.375 C43.88121094 99.04563477 43.13742187 99.71626953 42.37109375 100.40722656 C39.18685808 102.68896016 37.07659134 103.13158027 33.21484375 103.640625 C31.97669922 103.80820313 30.73855469 103.97578125 29.46289062 104.1484375 C28.17576172 104.30570312 26.88863281 104.46296875 25.5625 104.625 C24.30244141 104.79773438 23.04238281 104.97046875 21.74414062 105.1484375 C-5.17718337 108.65447039 -5.17718337 108.65447039 -15.375 101.375 C-16.96484375 99.03515625 -16.96484375 99.03515625 -18.3125 96.4375 C-21.51754232 90.82867593 -24.47200299 88.30614998 -30.6875 86.3125 C-35.17064826 86.38848556 -37.4624038 87.75639091 -41.1640625 90.1484375 C-45.70742846 92.66896208 -50.2788042 92.47492541 -55.375 92.375 C-53.86836015 86.49910459 -50.55723313 79.79179621 -45.62109375 76.04296875 C-44.02974506 74.28999074 -44.02974506 74.28999074 -44.58984375 71.15234375 C-44.97849609 69.28255859 -44.97849609 69.28255859 -45.375 67.375 C-45.62378906 66.15941406 -45.87257812 64.94382812 -46.12890625 63.69140625 C-46.39574219 62.45261719 -46.66257813 61.21382812 -46.9375 59.9375 C-49.95463854 45.04558511 -47.35922518 31.42857451 -39.375 18.375 C-31.19855935 6.11913089 -15.51190702 -7.46869597 0 0 Z M-21.1171875 22.95703125 C-24.58769159 26.67371297 -26.52214964 30.6805934 -28.375 35.375 C-28.808125 36.4475 -29.24125 37.52 -29.6875 38.625 C-31.2185523 46.97619434 -31.70119414 54.8755025 -27.375 62.375 C-26.54355469 61.88128906 -25.71210938 61.38757813 -24.85546875 60.87890625 C-23.76878906 60.23824219 -22.68210937 59.59757812 -21.5625 58.9375 C-20.48355469 58.29941406 -19.40460938 57.66132812 -18.29296875 57.00390625 C-15.375 55.375 -15.375 55.375 -12.375 54.375 C-11.2377263 50.96317891 -11.66016358 49.81904442 -12.375 46.375 C-12.45500751 44.09882931 -12.48268953 41.82052304 -12.47265625 39.54296875 C-12.46943359 38.25068359 -12.46621094 36.95839844 -12.46289062 35.62695312 C-12.45453665 34.27213474 -12.44607172 32.91731703 -12.4375 31.5625 C-12.43248 30.18815265 -12.42791797 28.81380355 -12.42382812 27.43945312 C-12.41205668 24.08459076 -12.39561283 20.72981779 -12.375 17.375 C-16.07140359 17.375 -18.49753525 20.5774436 -21.1171875 22.95703125 Z M127.87890625 31.41015625 C121.08020212 40.40199075 116.46084643 51.30473912 116.52734375 62.67578125 C116.53056641 63.65224609 116.53378906 64.62871094 116.53710938 65.63476562 C116.54548828 66.64216797 116.55386719 67.64957031 116.5625 68.6875 C116.56701172 69.71423828 116.57152344 70.74097656 116.57617188 71.79882812 C116.58791816 74.32427882 116.60434435 76.84960905 116.625 79.375 C117.285 79.705 117.945 80.035 118.625 80.375 C119.07230469 79.25222656 119.51960937 78.12945312 119.98046875 76.97265625 C129.36969467 53.61829382 129.36969467 53.61829382 138.625 45.375 C140.87109375 44.625 140.87109375 44.625 142.625 44.375 C143.18362126 55.81556332 138.90051536 65.45625284 134.75390625 75.8984375 C131.08363921 84.397065 131.08363921 84.397065 130.625 93.375 C133.02359044 95.71130748 133.02359044 95.71130748 135.625 97.375 C145.79024195 89.93701809 151.56893961 78.7443891 154.2421875 66.5625 C155.90620545 52.70700364 155.55317409 39.26726114 147.625 27.375 C140.48929711 22.61786474 133.20101052 25.20698774 127.87890625 31.41015625 Z M5.625 63.375 C2.37307052 68.67675783 2.37307052 68.67675783 2.02734375 74.65625 C2.22457031 75.2234375 2.42179687 75.790625 2.625 76.375 C3.1096875 75.72273438 3.594375 75.07046875 4.09375 74.3984375 C8.45037102 68.71807393 12.70526129 64.3670927 18.625 60.375 C19.96281044 59.38099749 21.29732754 58.38250366 22.625 57.375 C16.18374701 57.375 10.4589762 59.09033928 5.625 63.375 Z "
    transform="translate(238.375,5.625)" style="fill: #382216;" />
  <path
    d="M0 0 C0.33 0.99 0.66 1.98 1 3 C-7.92535312 19.1543672 -23.90561964 28.50393445 -41 34 C-64.01017532 40.28979735 -86.72117176 38.21057734 -110.0625 35 C-151.29553348 29.33801829 -183.0017027 35.49191075 -221.69140625 50.15234375 C-263.73423069 65.97797891 -310.6000601 73.69866262 -353.03515625 54.93359375 C-358.77407316 52.2406641 -363.93738272 48.81268537 -369 45 C-369.83660156 44.37480469 -370.67320312 43.74960937 -371.53515625 43.10546875 C-374.26392173 40.77455814 -376.43119528 38.28877731 -378.6875 35.5 C-379.45449219 34.5615625 -380.22148437 33.623125 -381.01171875 32.65625 C-384.06753356 28.5738255 -384.06753356 28.5738255 -385 26 C-384.67 25.01 -384.34 24.02 -384 23 C-383.22398437 23.50789062 -382.44796875 24.01578125 -381.6484375 24.5390625 C-370.06331103 31.92147006 -358.5225834 36.79025028 -345.25 40.3125 C-344.29174316 40.56725098 -343.33348633 40.82200195 -342.34619141 41.08447266 C-321.02226006 46.48074785 -295.40461491 46.01027219 -274 41 C-273.1843457 40.81195801 -272.36869141 40.62391602 -271.52832031 40.43017578 C-251.79636054 35.74150406 -232.8013667 28.46955594 -213.94702148 21.0871582 C-170.7081531 4.17830255 -134.08934235 2.79226532 -88.43261719 10.64160156 C-57.79965493 15.87720469 -27.83698089 14.36847509 0 0 Z "
    transform="translate(523,635)" style="fill: #382216;" />
  <path
    d="M0 0 C-4.65415039 15.48356373 -16.38426406 26.97236102 -30 35 C-60.22304176 51.2079639 -95.14284076 47.07150546 -127.74684143 42.51966858 C-138.49609341 41.02031597 -149.13180411 39.94054597 -160 40 C-161.14710449 40.00410889 -161.14710449 40.00410889 -162.31738281 40.00830078 C-167.90847369 40.07228538 -173.43827496 40.43200344 -179 41 C-179.82000488 41.08282227 -180.64000977 41.16564453 -181.48486328 41.25097656 C-199.85121783 43.32567486 -217.0394769 49.64242519 -234.37915039 55.73486328 C-237.57722192 56.85227995 -240.78317368 57.93800196 -244 59 C-244 52.87395355 -237.8068777 47.86606852 -233.734375 43.66015625 C-211.76067478 22.95976648 -184.07356148 14.80652732 -154.4375 14.625 C-153.68765839 14.61977325 -152.93781677 14.61454651 -152.16525269 14.60916138 C-135.30387336 14.55574858 -118.86976689 16.71548718 -102.21401978 19.13696289 C-68.25463922 24.01188384 -35.44467227 21.53531527 -6 3 C-5.23429688 2.41605469 -4.46859375 1.83210937 -3.6796875 1.23046875 C-2 0 -2 0 0 0 Z "
    transform="translate(640,564)" style="fill: #382216;" />
  <path
    d="M0 0 C5.57782513 4.48395667 8.88917005 9.13463066 10.41015625 16.1875 C10.95282681 22.49171541 8.27545118 27.37090191 4.41015625 32.1875 C-6.76474335 44.00175953 -22.9978831 47.35231894 -38.65234375 48.390625 C-54.76086511 48.64767587 -73.4142666 45.53103316 -85.58984375 34.1875 C-90.49894202 29.43215425 -93.4468221 25.13068575 -93.65234375 18.02734375 C-93.23965903 10.50874401 -89.87226918 5.09545858 -84.46484375 0 C-61.78160989 -17.88485747 -22.93187475 -16.04885352 0 0 Z M-58.58984375 12.0625 C-59.81718989 14.17904157 -59.81718989 14.17904157 -59.27734375 16.6875 C-56.72425698 20.46985078 -53.94748054 21.93576716 -49.58984375 23.1875 C-41.53482866 24.18058405 -35.44240037 23.58347972 -28.58984375 19.1875 C-26.30994732 17.37900809 -26.30994732 17.37900809 -26.58984375 14.8125 C-28.00197208 11.10566312 -30.19402519 10.08915839 -33.58984375 8.1875 C-37.01975913 7.04419487 -39.78848535 6.98368349 -43.40234375 6.9375 C-44.60503906 6.91171875 -45.80773437 6.8859375 -47.046875 6.859375 C-51.7983798 7.29942616 -55.11322141 8.80316655 -58.58984375 12.0625 Z "
    transform="translate(263.58984375,523.8125)" style="fill: #382216;" />
  <path
    d="M0 0 C2.92940891 1.66851305 4.53807598 3.20692347 6.10546875 6.19921875 C6.88751912 10.28325957 6.33749602 11.81749647 4.16796875 15.38671875 C-0.16290281 20.0347809 -6.16705479 21.31234364 -12.33203125 21.57421875 C-18.43549841 21.33864633 -24.33463859 19.88500172 -29.45703125 16.51171875 C-31.53907637 13.16234183 -32.19301792 10.13452979 -31.89453125 6.19921875 C-29.63142437 1.67300499 -26.00099635 -0.24213953 -21.44921875 -2.0703125 C-13.9502677 -4.21450798 -7.02815291 -3.1844572 0 0 Z "
    transform="translate(148.89453125,524.80078125)" style="fill: #382216;" />
  <path
    d="M0 0 C2.12694134 1.54589721 3.42956074 2.73361736 4.55859375 5.1328125 C4.98546165 8.47661104 4.75798822 10.60940202 3.55859375 13.7578125 C-0.0504375 18.04353711 -4.9055489 20.06639504 -10.37890625 21.0078125 C-16.4274138 21.52080229 -22.13296922 19.9663701 -27.44140625 17.1328125 C-27.44140625 16.4728125 -27.44140625 15.8128125 -27.44140625 15.1328125 C-28.10140625 15.1328125 -28.76140625 15.1328125 -29.44140625 15.1328125 C-31.80692228 9.33729822 -31.80692228 9.33729822 -30.859375 6.21484375 C-28.44750667 1.70820531 -25.62598668 -0.89104437 -20.64453125 -2.41796875 C-13.51754816 -3.87116566 -6.33436501 -3.7663792 0 0 Z "
    transform="translate(333.44140625,517.8671875)" style="fill: #382216;" />
  <path
    d="M0 0 C3.97709235 2.33946609 5.7605906 3.93127223 8.1875 7.875 C8.34046865 12.23460642 7.72847628 14.17491305 5.0625 17.625 C-0.17728373 21.72570031 -4.9507515 23.41874184 -11.5390625 23.16015625 C-16.65029073 22.51905718 -20.49472798 21.12519397 -24.25 17.5625 C-26.0675331 14.43634306 -26.8125 12.50467668 -26.8125 8.875 C-24.53347125 3.69538921 -21.40026865 1.56636794 -16.3125 -0.43359375 C-10.61029895 -2.01060873 -5.63258089 -1.66207305 0 0 Z "
    transform="translate(417.8125,480.125)" style="fill: #382216;" />
  <path
    d="M0 0 C2.51729117 1.88796838 3.36046769 3.158144 5 6 C5.15611632 10.44931499 4.53216657 12.33479179 1.75 15.8125 C-3.01270684 19.60101681 -6.89728931 20.29282505 -12.9375 20.3125 C-14.71447266 20.33763672 -14.71447266 20.33763672 -16.52734375 20.36328125 C-21.28394568 19.86568397 -24.52339263 18.0491684 -28.375 15.3125 C-30.29671672 12.57774928 -30.75268981 10.37291931 -30.578125 7.03125 C-29.44591169 3.05320324 -26.43352777 1.04264666 -23 -1 C-15.12356049 -4.09431552 -7.5517809 -3.74771217 0 0 Z "
    transform="translate(297,498)" style="fill: #382216;" />
  <path
    d="M0 0 C2.42107373 1.47613989 3.72218515 2.49369243 4.8515625 5.12890625 C5.3515625 8.56640625 5.3515625 8.56640625 4.8515625 12.12890625 C1.79756019 16.08114453 -1.43091052 18.52831674 -6.1484375 20.12890625 C-13.83604803 20.94230504 -19.94138594 20.98659877 -26.1484375 16.12890625 C-28.82731392 13.62286056 -29.11313954 12.3715797 -29.6484375 8.69140625 C-29.0070062 4.12120827 -27.77950957 2.91015294 -24.1484375 0.12890625 C-16.10088023 -4.44715572 -8.12818999 -4.12153803 0 0 Z "
    transform="translate(376.1484375,497.87109375)" style="fill: #382216;" />
  <path
    d="M0 0 C2.63744098 2.84257527 2.99236544 3.94655806 3.5625 7.9375 C3.41520884 11.53274341 3.01552472 11.98258202 0.4375 14.875 C-5.34213802 18.88563666 -12.12165312 19.92857683 -19 19 C-23.46838297 17.69200815 -26.95362374 16.13870358 -30.125 12.6875 C-31.31686183 9.02678153 -31.00888229 6.69923507 -30 3 C-23.13515925 -6.88537068 -9.20242829 -5.29589124 0 0 Z "
    transform="translate(343,478)" style="fill: #382216;" />
  <path
    d="M0 0 C4.6 3.2 4.6 3.2 6 6 C6.4830499 10.26694079 6.5543027 12.26092973 3.9375 15.75 C-1.60218775 19.99316509 -6.52959361 21.58345258 -13.43359375 21.3515625 C-18.86765427 20.60717065 -23.39578205 18.7457666 -27.125 14.6875 C-28.32809494 10.99227982 -28.08307426 8.72306775 -27 5 C-19.89505479 -2.75084932 -9.43361925 -3.49393305 0 0 Z "
    transform="translate(384,461)" style="fill: #382216;" />
</svg>